# xmcd
#
# Track frame offsets: 
#        150
#        13517
#        26206
#        37157
#        49798
#        62870
#        75019
#        90187
#        106868
#        118178
#        130375
#        159451
#        181369
#        201863
#        213104
#
# Disc length: 2928 seconds
#
# Revision: 0
# Processed by: cddbd v1.5.2PL0 Copyright (c) Steve Scherf et al.
# Submitted via: ExactAudioCopyFreeDBPlugin 1.0
#
DISCID=c00b6e0f
DTITLE=Craig McMurdo - Mr Wonderful Volume 1
DYEAR=1900
DGENRE=Swing
TTITLE0=Too Close For Comfort
TTITLE1=Let There Be Love
TTITLE2=At The Avenue
TTITLE3=Summer Wind
TTITLE4=Do You Know The Way To San Jose?
TTITLE5=Blues For Sure
TTITLE6=Lullaby of Broadway
TTITLE7=Chattanooga Choo Choo
TTITLE8=I Left My Heart In San Francisco
TTITLE9=Choo Choo Cha Boogie
TTITLE10=Buddy Holly Medley
TTITLE11=Just a Gigolo - I Ain't Got Nobody
TTITLE12=Moonlight You Mean Old Fraudster
TTITLE13=Big Train
TTITLE14=Lullaby In Rag Time - Five Pennies
EXTD=
EXTT0=
EXTT1=
EXTT2=
EXTT3=
EXTT4=
EXTT5=
EXTT6=
EXTT7=
EXTT8=
EXTT9=
EXTT10=
EXTT11=
EXTT12=
EXTT13=
EXTT14=
PLAYORDER=
